<svg xmlns="http://www.w3.org/2000/svg" viewBox="0 0 32 32" width="32" height="32">
  <!-- Cockpit .notebook: tile preto; duas notas empilhadas (a de trás
       deslocada), canto dobrado, três linhas e uma fita de marcador. -->
  <rect x="1" y="1" width="30" height="30" rx="7" fill="#0B0B0C"/>
  <!-- nota de trás -->
  <rect x="11" y="5.5" width="13" height="16" rx="2" fill="#FFFFFF" opacity="0.32"/>
  <!-- nota da frente, canto superior direito dobrado -->
  <path d="M8 10a2 2 0 0 1 2-2h8.4l4.6 4.6V24.5a2 2 0 0 1-2 2H10a2 2 0 0 1-2-2z" fill="#FFFFFF"/>
  <path d="M18.4 8v3.6a1 1 0 0 0 1 1H23z" fill="#0B0B0C" opacity="0.25"/>
  <!-- fita de marcador pendurada no topo -->
  <path d="M10.8 8h2.8v5.2l-1.4-1.1-1.4 1.1z" fill="#0B0B0C" opacity="0.55"/>
  <!-- linhas de texto -->
  <rect x="10.8" y="15.2" width="9.4" height="1.6" rx="0.8" fill="#0B0B0C"/>
  <rect x="10.8" y="18.6" width="9.4" height="1.6" rx="0.8" fill="#0B0B0C"/>
  <rect x="10.8" y="22" width="6" height="1.6" rx="0.8" fill="#0B0B0C"/>
</svg>
